<svg width="50" height="17" viewBox="0 0 50 17" fill="none" xmlns="http://www.w3.org/2000/svg">
<path d="M17.31 8.5C17.31 13.1944 13.4351 17 8.65515 17C3.87499 17 0 13.1944 0 8.5C0 3.80557 3.87499 3.8147e-06 8.65515 3.8147e-06C13.4351 3.8147e-06 17.31 3.80557 17.31 8.5Z" fill="#ED342B"/>
<path d="M8.65501 12.141C6.7191 7.83131 5.29964 3.80524 5.29964 3.80524H2.33189C2.33189 3.80524 4.1382 8.97272 7.49347 15.435H9.81657C13.1718 8.97272 14.978 3.80524 14.978 3.80524H12.0103C12.0103 3.80524 10.5909 7.83131 8.65501 12.141Z" fill="#FEFEFE"/>
<path d="M41.6697 10.8452C41.6697 8.05721 43.4767 6.28273 46.0574 6.28273C49.9283 6.28273 50.1863 10.0842 49.9285 11.605H44.1218C44.1218 11.605 44.2508 13.5064 46.8318 13.5064C48.1111 13.5063 49.3904 13.1318 49.4119 13.1255L49.6707 15.1528C49.6707 15.1528 48.3796 15.6607 46.573 15.6607C43.9926 15.6605 41.6699 14.393 41.6697 10.8452ZM47.7341 9.83058C47.7317 9.79868 47.5903 8.05726 45.9285 8.05714C44.2657 8.05714 44.1242 9.79954 44.1218 9.83058H47.7341ZM34.655 6.28371C34.655 6.28371 35.3311 9.2856 36.6833 12.4732C38.0355 9.28572 38.7107 6.28468 38.7107 6.28468H41.4148C41.4148 6.28468 40.0632 11.4108 37.7644 15.6587H35.6013C33.3143 11.4324 31.9646 6.33637 31.9509 6.28468L34.655 6.28371ZM24.991 7.30226C27.4985 5.5988 30.5837 6.51808 30.5837 6.51808L30.1843 8.61086C30.1843 8.61086 28.7192 8.08767 27.6541 8.8716V15.6724H24.991V7.30226ZM14.825 10.8443C14.825 8.05632 16.632 6.28175 19.2126 6.28175C23.0834 6.28201 23.3416 10.0843 23.0837 11.605H17.2771C17.279 11.6318 17.4248 13.5064 19.9871 13.5064C21.27 13.5063 22.5533 13.1296 22.5671 13.1255L22.825 15.1528C22.7993 15.1629 21.5166 15.6597 19.7283 15.6597C17.1476 15.6596 14.825 14.3925 14.825 10.8443ZM20.8894 9.83058C20.8869 9.79847 20.7456 8.05744 19.0837 8.05714C17.4214 8.05714 17.2795 9.79944 17.2771 9.83058H20.8894Z" fill="white"/>
</svg>
