<svg width="16" height="16" viewBox="0 0 16 16" fill="none" xmlns="http://www.w3.org/2000/svg">
<path d="M0.765625 5.21094C0.255208 5.21094 0 4.95052 0 4.42969V2.53125C0 1.69792 0.216146 1.06771 0.648438 0.640625C1.08073 0.213542 1.71875 0 2.5625 0H4.46094C4.97656 0 5.23438 0.255208 5.23438 0.765625C5.23438 1.28125 4.97656 1.53906 4.46094 1.53906H2.65625C2.29167 1.53906 2.01302 1.63281 1.82031 1.82031C1.63281 2.00781 1.53906 2.29167 1.53906 2.67188V4.42969C1.53906 4.95052 1.28125 5.21094 0.765625 5.21094ZM14.7109 5.21094C14.2005 5.21094 13.9453 4.95052 13.9453 4.42969V2.67188C13.9453 2.29167 13.8464 2.00781 13.6484 1.82031C13.4557 1.63281 13.1797 1.53906 12.8203 1.53906H11.0156C10.5 1.53906 10.2422 1.28125 10.2422 0.765625C10.2422 0.255208 10.5 0 11.0156 0H12.9141C13.763 0 14.4036 0.213542 14.8359 0.640625C15.2682 1.06771 15.4844 1.69792 15.4844 2.53125V4.42969C15.4844 4.95052 15.2266 5.21094 14.7109 5.21094ZM2.5625 15.4766C1.71875 15.4766 1.08073 15.2604 0.648438 14.8281C0.216146 14.401 0 13.7708 0 12.9375V11.0469C0 10.526 0.255208 10.2656 0.765625 10.2656C1.28125 10.2656 1.53906 10.526 1.53906 11.0469V12.8047C1.53906 13.1849 1.63281 13.4688 1.82031 13.6562C2.01302 13.8438 2.29167 13.9375 2.65625 13.9375H4.46094C4.97656 13.9375 5.23438 14.1953 5.23438 14.7109C5.23438 15.2214 4.97656 15.4766 4.46094 15.4766H2.5625ZM11.0156 15.4766C10.5 15.4766 10.2422 15.2214 10.2422 14.7109C10.2422 14.1953 10.5 13.9375 11.0156 13.9375H12.8203C13.1797 13.9375 13.4557 13.8438 13.6484 13.6562C13.8464 13.4688 13.9453 13.1849 13.9453 12.8047V11.0469C13.9453 10.526 14.2005 10.2656 14.7109 10.2656C15.2266 10.2656 15.4844 10.526 15.4844 11.0469V12.9375C15.4844 13.7708 15.2682 14.401 14.8359 14.8281C14.4036 15.2604 13.763 15.4766 12.9141 15.4766H11.0156ZM4.79688 7.21875C4.61458 7.21875 4.46354 7.15885 4.34375 7.03906C4.22396 6.91927 4.16406 6.76562 4.16406 6.57812V5.46875C4.16406 5.28646 4.22396 5.13542 4.34375 5.01562C4.46354 4.89062 4.61458 4.82812 4.79688 4.82812C4.98438 4.82812 5.13802 4.89062 5.25781 5.01562C5.38281 5.13542 5.44531 5.28646 5.44531 5.46875V6.57812C5.44531 6.76562 5.38281 6.91927 5.25781 7.03906C5.13802 7.15885 4.98438 7.21875 4.79688 7.21875ZM7.10938 9.04688C6.91146 9.04688 6.7526 8.9974 6.63281 8.89844C6.51823 8.79948 6.46094 8.66146 6.46094 8.48438C6.46094 8.33854 6.51302 8.21615 6.61719 8.11719C6.72135 8.01302 6.84635 7.96094 6.99219 7.96094H7.23438C7.26562 7.96094 7.29167 7.95312 7.3125 7.9375C7.33854 7.91667 7.35156 7.88542 7.35156 7.84375V5.35938C7.35156 5.20312 7.40104 5.07552 7.5 4.97656C7.59896 4.8724 7.72917 4.82031 7.89062 4.82031C8.05208 4.82031 8.18229 4.8724 8.28125 4.97656C8.38021 5.07552 8.42969 5.20312 8.42969 5.35938V7.80469C8.42969 8.20573 8.32031 8.51302 8.10156 8.72656C7.88802 8.9401 7.58073 9.04688 7.17969 9.04688C7.16406 9.04688 7.15104 9.04688 7.14062 9.04688C7.13021 9.04688 7.11979 9.04688 7.10938 9.04688ZM10.6484 7.21875C10.4609 7.21875 10.3073 7.15885 10.1875 7.03906C10.0677 6.91927 10.0078 6.76562 10.0078 6.57812V5.46875C10.0078 5.28646 10.0677 5.13542 10.1875 5.01562C10.3073 4.89062 10.4609 4.82812 10.6484 4.82812C10.8307 4.82812 10.9818 4.89062 11.1016 5.01562C11.2214 5.13542 11.2812 5.28646 11.2812 5.46875V6.57812C11.2812 6.76562 11.2214 6.91927 11.1016 7.03906C10.9818 7.15885 10.8307 7.21875 10.6484 7.21875ZM7.69531 11.625C7.21094 11.625 6.73438 11.5312 6.26562 11.3438C5.80208 11.1562 5.41406 10.8828 5.10156 10.5234C5.05469 10.4661 5.01823 10.4062 4.99219 10.3438C4.96615 10.276 4.95312 10.2083 4.95312 10.1406C4.95312 9.98438 5.00521 9.85677 5.10938 9.75781C5.21354 9.65365 5.34115 9.60156 5.49219 9.60156C5.58594 9.60156 5.66406 9.6224 5.72656 9.66406C5.79427 9.70573 5.85938 9.75781 5.92188 9.82031C6.15104 10.0443 6.42188 10.224 6.73438 10.3594C7.04688 10.4896 7.36719 10.5547 7.69531 10.5547C8.03385 10.5547 8.35938 10.487 8.67188 10.3516C8.98958 10.2161 9.2526 10.0391 9.46094 9.82031C9.60156 9.67448 9.74219 9.60156 9.88281 9.60156C10.0391 9.60156 10.1693 9.65365 10.2734 9.75781C10.3776 9.85677 10.4297 9.98438 10.4297 10.1406C10.4297 10.2188 10.4167 10.2917 10.3906 10.3594C10.3646 10.4271 10.3281 10.487 10.2812 10.5391C9.9375 10.8828 9.53646 11.151 9.07812 11.3438C8.625 11.5312 8.16406 11.625 7.69531 11.625Z" fill="white"/>
</svg>
