<svg width="20" height="20" viewBox="0 0 20 20" fill="none" xmlns="http://www.w3.org/2000/svg">
<path fill-rule="evenodd" clip-rule="evenodd" d="M4.69678 4.63766L8.83944 8.77961C9.13953 8.48965 9.54887 8.31114 10.0001 8.31114C10.9206 8.31114 11.6667 9.05403 11.6667 9.97044C11.6667 10.4225 11.4852 10.8324 11.1906 11.1316L15.3034 15.2443C15.6288 15.5697 15.6288 16.0973 15.3034 16.4228C14.9779 16.7482 14.4503 16.7482 14.1249 16.4228L13.3749 15.6736C12.3041 16.2937 11.1794 16.6076 10.0001 16.6076C7.01208 16.6076 4.37391 14.5921 2.07834 10.6883L1.90243 10.3843L1.66675 9.97044L1.90243 9.55654C2.60361 8.32518 3.33722 7.27241 4.10348 6.40193L3.51827 5.81617C3.19283 5.49073 3.19283 4.96309 3.51827 4.63766C3.84371 4.31222 4.37134 4.31222 4.69678 4.63766ZM3.78818 9.64077L3.58785 9.97044L3.76121 10.2565C5.72939 13.4486 7.81187 14.9483 10.0001 14.9483C10.7274 14.9483 11.4428 14.7829 12.1459 14.4452L8.99706 11.2957C8.87113 11.2011 8.75911 11.0891 8.6646 10.9633L5.28132 7.57827C4.7766 8.16274 4.27884 8.84924 3.78818 9.64077ZM10.0001 3.33325C12.9881 3.33325 15.6263 5.34878 17.9218 9.25253L18.0977 9.55654L18.3334 9.97044L17.9261 10.681C17.2855 11.7714 16.6181 12.7146 15.9239 13.5079L14.7472 12.3312C15.3113 11.6733 15.8664 10.8878 16.4124 9.97055C14.3932 6.5818 12.2527 4.99255 10.0001 4.99255C9.28651 4.99255 8.58418 5.15203 7.89339 5.47767L6.66206 4.2461C7.72177 3.64006 8.8343 3.33325 10.0001 3.33325Z" fill="#5F738C"/>
</svg>
