<svg width="66" height="23" viewBox="0 0 66 23" fill="none" xmlns="http://www.w3.org/2000/svg">
<path d="M22.8492 11.5C22.8492 17.8513 17.7343 23 11.4248 23C5.11499 23 0 17.8513 0 11.5C0 5.14872 5.11499 7.62939e-06 11.4248 7.62939e-06C17.7343 7.62939e-06 22.8492 5.14872 22.8492 11.5Z" fill="#EE312A"/>
<path d="M11.4247 16.426C8.86925 10.5953 6.99556 5.14823 6.99556 5.14823H3.07813C3.07813 5.14823 5.46246 12.1395 9.89141 20.8826H12.9579C17.3869 12.1395 19.771 5.14823 19.771 5.14823L15.8536 5.14823C15.8536 5.14823 13.9801 10.5953 11.4247 16.426Z" fill="#FEFEFE"/>
<path d="M55.0044 14.6726C55.0044 10.9007 57.389 8.49987 60.7954 8.49976C65.9049 8.49976 66.2461 13.6434 65.9058 15.7009H58.2407C58.2407 15.7009 58.4109 18.2732 61.8179 18.2732C63.5208 18.2732 65.2241 17.7585 65.2241 17.7585L65.5649 20.5017C65.5588 20.5042 63.8574 21.1882 61.4771 21.1882C58.0706 21.1882 55.0045 19.4731 55.0044 14.6726ZM63.0093 13.3005C63.0071 13.2705 62.8253 10.9003 60.6255 10.9001C58.4248 10.9001 58.2429 13.2708 58.2407 13.3005H63.0093ZM45.7446 8.50171C45.7446 8.50171 46.6365 12.5632 48.4214 16.8757C50.1964 12.5871 51.0883 8.54835 51.0981 8.50366H54.6675C54.652 8.56372 52.8694 15.4631 49.8481 21.1853L46.9946 21.1853C43.9738 15.4637 42.1911 8.56407 42.1753 8.50269L45.7446 8.50171ZM32.9878 9.87964C36.2815 7.58614 40.3299 8.80703 40.3696 8.81909L39.8423 11.6501C39.8233 11.6432 37.9016 10.9478 36.5024 12.0037V21.2039H32.9878V9.87964ZM19.5688 14.6716C19.569 10.8998 21.9536 8.49987 25.3599 8.49976C30.4697 8.49976 30.8106 13.6435 30.4702 15.7009H22.8052C22.8076 15.7355 22.999 18.2732 26.3823 18.2732C28.0852 18.2732 29.7886 17.7576 29.7886 17.7576L30.1294 20.5007C30.1294 20.5007 28.4261 21.1872 26.0415 21.1873C22.635 21.1873 19.5688 19.4723 19.5688 14.6716ZM27.5747 13.3005C27.5726 13.2719 27.3911 10.9002 25.1899 10.9001C22.9888 10.9001 22.8072 13.2726 22.8052 13.3005H27.5747Z" fill="#00425F"/>
</svg>
